<?xml version="1.0" encoding="UTF-8"?>
<svg id="Layer_2" data-name="Layer 2" xmlns="http://www.w3.org/2000/svg" viewBox="0 0 420 420">
  <defs>
    <style>
      .cls-1 {
        stroke-linecap: round;
        stroke-linejoin: round;
      }

      .cls-1, .cls-2 {
        fill: #6da90f;
        stroke: #6da90f;
        stroke-width: 20px;
      }

      .cls-2 {
        stroke-miterlimit: 10;
      }
    </style>
  </defs>
  <path class="cls-1" d="M220.68,150.53c-1.52-.88-37.14,33.72-39.8,35.97-21.4,18.14-44.21,34.48-67.72,49.76-20.39,13.24-39.48,30.38-48.49,53.58-6.74,17.37-5.78,36.99,3.26,53.42,20.67,37.59,73.2,44.37,107.26,22,10.92-7.17,20.52-16.32,28.84-26.36,1.18-1.42,10.92-11.77,10.13-13.82,5.88,15.08,15.76,29.87,27.67,40.77,38.71,35.42,96.78,2.86,101.97-45,3.05-28.14-9.71-56.42-24.73-79.43-22.63-34.66-54.37-63.57-89.33-85.45-2.98-1.87-6-3.69-9.05-5.45Z"/>
  <path class="cls-2" d="M93.58,124.77c-5.1-1.78-10.87-.76-15.99,1.11-21.42,7.82-35.88,30.7-34.1,53.36,1.56,19.8,15.68,43.04,37.88,30.3,6.66-3.82,11.61-10.13,15.05-16.99,6.23-12.41,9.95-27.24,10.14-41.13.13-9.63-2.01-21.93-11.98-26.25-.33-.14-.67-.27-1-.39Z"/>
  <path class="cls-2" d="M194.29,41.32c-.75.25-1.48.57-2.19.9-32.71,15.05-78.07,49.95-64.24,91.61,2.32,6.98,7.33,13.44,14.33,15.73,4.36,1.42,9.12,1.13,13.57,0,17.63-4.48,32.74-19.86,41.15-35.58,10.26-19.17,11.1-40.91,6.6-61.83-.7-3.24-1.64-10.61-5.85-11.24-1.14-.17-2.27.04-3.37.41Z"/>
  <path class="cls-2" d="M235.26,46.39c-4.71,17.8-2.49,42.24,4.2,59.25,8.89,22.61,36.77,46.91,61.49,31.12,11.3-7.21,15.83-22.24,13.49-35.44-5.3-29.89-33.56-49.27-59.49-60.56-4.07-1.77-8.54-3.45-12.87-2.44-3.79.89-5.77,4.1-6.82,8.07Z"/>
  <path class="cls-2" d="M334.25,197.51c-3.69-2.32-6.91-6.25-9.25-12.14-7.77-19.55-4.61-45.05,11.3-59.79,8.7-8.06,21.38-10.43,30.5-1.69,12.22,11.71,11.07,35.03,7.23,50.02-4.58,17.85-25.62,32.52-39.77,23.61Z"/>
</svg>