<?xml version="1.0" encoding="UTF-8"?>
<svg id="Layer_2" data-name="Layer 2" xmlns="http://www.w3.org/2000/svg" viewBox="0 0 658.12 233.59">
  <defs>
    <style>
      .cls-1 {
        fill: #5f5ba6;
      }
    </style>
  </defs>
  <path class="cls-1" d="M229.54,66.05c-8.55-5.18-19.2-7.76-31.96-7.76-13.5,0-24.89,2.57-34.15,7.71-9.27,5.14-16.28,12.49-21.04,22.05-4.76,9.56-7.15,20.91-7.15,34.04,0,14.93,2.55,27.16,7.65,36.68,5.1,9.53,13.13,16.54,24.08,21.04,10.95,4.5,25.09,6.75,42.42,6.75,6.23,0,12.45-.28,18.68-.84,6.23-.56,12.83-1.52,19.8-2.87v-34.99c-5.18.9-10.48,1.67-15.92,2.31-5.44.64-10.63.96-15.58.96-9.38,0-16.48-.64-21.32-1.91-4.84-1.27-8.1-3.39-9.79-6.36-1.11-1.95-1.85-4.38-2.23-7.26h72.16v-11.93c0-13.65-2.14-25.37-6.41-35.16-4.28-9.79-10.69-17.27-19.24-22.45ZM182.75,109.26c.09-5.08.59-9.17,1.5-12.26,1.01-3.45,2.57-5.89,4.67-7.31,2.1-1.42,4.8-2.14,8.1-2.14s6.09.73,8.16,2.19c2.06,1.46,3.56,3.9,4.5,7.31.83,3.04,1.3,7.12,1.39,12.21h-28.32Z"/>
  <path class="cls-1" d="M325.4,17.55h-38.93l-8.89,42.76h-18v37.13h18v38.82c0,17.33,4.37,30.02,13.11,38.09,8.74,8.06,21.32,12.1,37.75,12.1,4.35,0,8.85-.3,13.5-.9,4.65-.6,8.62-1.28,11.93-2.02v-37.13c-2.33.3-4.41.56-6.25.79-1.84.22-3.66.34-5.46.34-6.23,0-10.58-1.33-13.05-3.99-2.48-2.66-3.71-7.56-3.71-14.68v-31.39h28.47v-37.13h-28.47V17.55Z"/>
  <rect class="cls-1" x="371.53" y="60.31" width="47.93" height="123.77"/>
  <path class="cls-1" d="M395.5.9c-9.9,0-17.14,2.04-21.72,6.13-4.58,4.09-6.86,9.92-6.86,17.5s2.29,13.32,6.86,17.44c4.57,4.13,11.82,6.19,21.72,6.19s17.23-2.06,21.77-6.19c4.54-4.12,6.81-9.94,6.81-17.44s-2.27-13.41-6.81-17.5c-4.54-4.09-11.8-6.13-21.77-6.13Z"/>
  <path class="cls-1" d="M611.31,60.31l-22.62,79.52-22.84-79.52h-66.72v-4.61c0-6,1.8-10.56,5.4-13.67,3.6-3.11,9.49-4.67,17.66-4.67,1.87,0,3.68.06,5.4.17,1.72.11,3.56.28,5.51.51V1.35c-3-.45-6-.79-9-1.01-3-.23-6.3-.34-9.9-.34-13.43,0-24.79,2.34-34.09,7.03-9.3,4.69-16.37,11.36-21.21,20.03-4.84,8.66-7.26,18.96-7.26,30.89v2.36h-18v37.13h18v86.64h47.48v-86.64h28.47v-2.63l29.7,89.27h13.05l-16.77,49.51h46.58l57.95-173.28h-46.81Z"/>
  <path class="cls-1" d="M115.44,30.27c-13.2-9.97-33.16-14.96-59.86-14.96-10.28,0-20.01.51-29.2,1.52-9.19,1.01-17.99,2.38-26.39,4.11v163.15h48.83v-44.33c2.1.08,4.12.15,6.08.22,1.95.08,4.01.11,6.19.11,24.08,0,42.46-5.25,55.13-15.75,12.68-10.5,19.02-26.03,19.02-46.58,0-21.68-6.6-37.51-19.8-47.48ZM83.44,60.54c2.22.65,4.25,1.85,6.01,3.36.88.76,1.64,1.61,2.42,2.46.75.81,1.5,1.65,1.55,2.84.06,1.53-1.16,2.67-2.63,3.51-4.89,2.79-12.74,4.39-17.48.35-2.47-2.1-4.06-5.26-2.33-8.39,1.68-3.04,5.14-4.52,8.41-4.64,1.36-.05,2.73.12,4.04.51ZM59.85,53.42c2.05-2.32,5.24-3.17,8.25-3.03,1.52.07,3.03.38,4.45.93,1.38.53,3.05,1.14,3.69,2.6,1.79,4.11-4.43,7.72-7.39,9.01-1.17.51-2.6,1-4.02,1.2-.98.13-1.96.12-2.83-.12-1.79-.5-3.23-1.7-3.95-3.43-1.06-2.53.11-5.24,1.81-7.16ZM55.94,96.01c-2.2,1.35-5,1.66-7.45.85-5.7-1.87-7.03-8.62-5.9-13.84.03-.13.06-.25.08-.38.67-2.95,1.58-5.89-.02-8.78-1.47-2.66-1.18-6.28-.15-9.03,1.13-3.03,3.84-5.07,7.1-5.31,2.2-.17,4.41.51,6.22,1.75,1.92,1.31,3.29,3.34,5.1,4.8,2.84,2.3,6.95,3.44,8.84,6.72,1.53,2.66,1.7,6.07.47,8.87-.31.71-.71,1.38-1.2,1.98-2.09,2.59-5.39,3.85-7.72,6.18-1.95,1.96-2.95,4.7-5.38,6.19ZM78.72,99.18c-.2,1.79-2.3,2.92-3.78,3.57-2.9,1.28-6.26,2-9.4,1.22-2.31-.57-4.46-1.99-5.71-4.04-1.34-2.19-.77-4.9.81-6.8,3.72-4.49,10.16-2.4,14.35.58.46.33.9.67,1.3,1.01,1.23,1.05,2.61,2.72,2.42,4.45ZM93.46,83.54c-.65,2.46-2.7,4.85-4.56,6.51-1.55,1.38-3.27,2.54-5.29,3.1-4.46,1.23-11.14-.54-12.03-5.78-.36-2.15.64-4.27,2.19-5.73.85-.8,1.94-1.35,3.09-1.73,1.06-.35,2.18-.56,3.23-.7,2.81-.36,5.85-.37,8.67-.09,2.1.21,4.94.82,4.85,3.48-.01.32-.06.63-.14.94Z"/>
</svg>