<svg width="145" height="121" viewBox="0 0 145 121" fill="none" xmlns="http://www.w3.org/2000/svg">
<path d="M144.449 80.7877C140.157 78.5164 135.489 77.1301 130.7 76.5192C130.532 59.8017 121.458 43.6324 113.317 32.456L113.286 32.413C109.89 28.074 98.2049 14.1408 90.3337 17.0073C86.3433 18.4602 84.4636 23.5745 84.6006 32.6205C83.7548 32.4012 82.9011 32.1937 82.0474 32.0057C79.3179 31.4066 76.5493 30.9758 73.7611 30.7487C70.358 30.4706 66.9237 30.4941 63.5324 30.8936C64.5231 22.5524 63.2661 17.6104 59.6986 15.8129C52.9748 12.4216 41.2071 22.5681 34.7966 28.9238L34.7574 28.963C24.8107 39.5558 13.1605 55.494 11.7742 73.0692C8.03835 72.9987 4.29462 73.4412 0.691873 74.4359C-0.522096 74.7687 -0.00517991 76.6602 1.21271 76.3234C4.62748 75.3836 8.14407 74.9802 11.6607 75.035C11.6607 75.1369 11.6528 75.2387 11.6489 75.3405C11.6489 75.4149 11.645 75.4854 11.6411 75.5598C11.5706 78.5164 11.8095 81.3712 12.3499 84.1124C12.2089 84.1672 12.0679 84.2181 11.9309 84.273C8.53176 85.6475 5.44985 87.6368 2.78303 90.1548C1.86668 91.0242 3.25296 92.4065 4.16931 91.5411C6.68731 89.1602 9.62042 87.3235 12.7924 86.0626C15.2399 95.6138 21.5173 103.708 31.3465 109.841C42.6051 116.862 57.4077 120.418 72.132 120.418C85.3055 120.418 98.4164 117.571 108.872 111.81C119.175 106.132 125.973 98.2845 128.965 88.7568C129.349 88.9918 129.733 89.2306 130.113 89.4852C132.944 91.3884 135.38 93.8594 137.291 96.6828C137.992 97.7206 139.691 96.7416 138.983 95.696C136.504 92.0267 133.269 89.0427 129.514 86.8419C129.811 85.6788 130.05 84.4923 130.238 83.2822H130.269C130.406 82.3306 130.5 81.3712 130.575 80.4157C130.59 80.2434 130.606 80.071 130.618 79.8987C130.63 79.7304 130.637 79.558 130.645 79.3897C130.661 79.0881 130.681 78.7827 130.688 78.4772C131.295 78.5595 131.902 78.6495 132.505 78.7553C136.327 79.4367 140.032 80.6624 143.462 82.4833C144.575 83.0746 145.565 81.3829 144.449 80.7916V80.7877ZM112.675 82.3619C111.888 82.3541 111.089 82.358 110.305 82.4403C109.781 82.4951 109.326 82.8514 109.326 83.4193C109.326 83.9049 109.777 84.4531 110.305 84.3983C112.463 84.1751 114.703 84.3434 116.845 84.6176C116.892 84.6215 116.912 84.6254 116.927 84.6293C116.939 84.6293 116.963 84.6332 117.014 84.6411C117.131 84.6567 117.245 84.6763 117.362 84.692C117.628 84.7311 117.895 84.7742 118.161 84.8212C118.705 84.9152 119.25 85.0248 119.786 85.1423C120.922 85.3969 122.046 85.7062 123.15 86.0743C124.172 86.415 125.171 86.8145 126.146 87.2609C122.868 98.308 114.57 105.098 107.368 109.069C86.1318 120.77 53.4682 119.94 33.0109 107.182C26.2166 102.945 18.5137 95.9271 15.7882 85.0679C16.9786 84.7429 18.1887 84.4923 19.4183 84.3239C21.6074 84.0262 23.9178 83.9753 26.1539 84.1241C26.6395 84.1555 27.1212 84.1985 27.6067 84.2495C27.826 84.273 28.0453 84.3004 28.2646 84.3278C28.3195 84.3356 28.3782 84.3434 28.433 84.3513C28.5505 84.3669 28.668 84.3826 28.7855 84.4022C29.5138 84.5118 30.2383 84.6411 30.9589 84.7938C31.6951 84.9504 32.4391 85.1227 33.1558 85.3616C34.3541 85.761 34.8671 83.8696 33.6766 83.4741C31.4875 82.7418 29.1066 82.4168 26.8196 82.221C22.9976 81.8959 19.0815 82.1622 15.3613 83.1451C15.005 81.2459 14.7974 79.233 14.77 77.1027C14.7622 76.6524 14.7661 76.1981 14.7739 75.7478C14.7739 75.5794 14.7817 75.411 14.7896 75.2387C14.7896 75.2269 14.7896 75.2152 14.7896 75.1995C16.7633 75.3796 18.7291 75.6968 20.6675 76.1394C25.1553 77.1654 29.3337 78.7279 33.3398 80.8582C34.0995 81.2615 34.8592 81.6766 35.5759 82.1465C36.6332 82.8397 37.6161 81.144 36.5627 80.4548C34.3854 79.0294 31.9575 77.929 29.5608 76.9343C24.8969 75.0037 19.9392 73.6958 14.9031 73.2337C16.2463 56.5984 27.4501 41.3219 37.0248 31.1246C46.4742 21.7692 54.8231 16.8546 58.2927 18.6051C60.5562 19.7485 61.265 24.2794 60.3134 31.3909C60.2978 31.3909 60.286 31.3948 60.2703 31.3987C57.443 31.9509 54.6508 32.7811 52.0349 33.9911C51.0951 34.4258 50.2061 35.1307 49.2624 35.5106C49.8459 35.2756 50.4333 35.0563 51.0285 34.8566C56.3621 33.0552 62.0795 32.597 67.6795 32.8594C72.4453 33.0826 77.1837 33.8306 81.8203 34.9545C83.9388 35.4675 85.983 36.2507 88.0859 36.7872C88.7438 36.9556 89.4957 36.9438 90.0322 36.47C90.4473 36.1019 90.6392 35.4753 90.4199 34.9623C90.1888 34.418 89.5622 34.0616 89.0218 33.8932C88.6028 33.764 88.1838 33.6309 87.7648 33.5016C87.5298 25.7009 88.826 20.8881 91.4145 19.9443C95.7691 18.3583 104.518 26.2766 110.811 34.3162C118.615 45.0304 127.305 60.4478 127.579 76.2216C126.647 76.1668 125.715 76.1394 124.783 76.1394C120.045 76.1433 115.267 76.7972 110.701 78.0543C109.839 78.2932 108.974 78.5399 108.136 78.8571C107.643 79.045 107.302 79.5189 107.451 80.0632C107.58 80.5371 108.159 80.9365 108.657 80.7485C110.979 79.8713 113.466 79.327 115.901 78.8923C119.696 78.2149 123.651 77.9368 127.567 78.1718C127.559 78.5007 127.548 78.8258 127.528 79.1547C127.509 79.4836 127.489 79.8087 127.465 80.1298C127.458 80.2473 127.446 80.3647 127.438 80.4861C127.285 82.1896 127.015 83.8109 126.655 85.3538C126.064 85.0875 125.468 84.8329 124.857 84.6058C120.992 83.1451 116.814 82.405 112.686 82.3619H112.675Z" fill="#5F5AA5"/>
<path d="M81.2681 28.5713C81.2681 28.5713 83.4063 14.6264 90.4708 6.82564C90.4708 6.82564 83.7274 9.63343 78.9929 17.0817L76.2086 0L70.6048 16.8624C70.6048 16.8624 68.0163 12.3903 61.3003 10.8161C61.3003 10.8161 67.1743 18.4014 67.1587 27.89C67.1587 27.89 74.509 26.2844 81.2681 28.5792V28.5713Z" fill="#5F5AA5"/>
<path d="M82.8345 84.2338C82.1962 86.7087 79.8779 87.9423 77.4969 88.1576C74.9319 88.3926 72.1985 87.6838 70.7496 85.389C69.8411 83.9557 69.5356 82.1974 69.5983 80.5096C69.6257 80.4979 69.657 80.4861 69.6805 80.4783C70.1191 80.3334 70.5499 80.1807 70.9767 80.0123C71.8226 79.6794 72.6489 79.2996 73.4517 78.8688C75.206 77.9329 78.006 76.4487 76.514 74.0325C76.3495 73.7662 76.142 73.5274 75.907 73.3198C74.6656 72.2155 72.8369 72.1215 71.2548 72.0667C68.9874 71.9923 66.7122 72.1685 64.4565 72.3839C62.663 72.5562 60.0314 73.2885 60.38 75.6342C60.4465 76.0767 60.6384 76.4996 60.9243 76.8403C62.4829 78.7122 64.9539 79.9771 67.3544 80.6271C67.0372 83.4192 65.5217 86.184 62.6826 87.0024C60.38 87.6681 57.5056 87.1042 55.6142 85.667C54.5451 84.8525 53.8245 83.6895 53.6953 82.3384C53.6444 81.8137 53.2802 81.3594 52.7163 81.3594C52.2268 81.3594 51.6864 81.8098 51.7373 82.3384C51.8939 83.9714 52.544 85.4595 53.7266 86.6147C54.8388 87.6956 56.2877 88.4161 57.7758 88.8194C61.0026 89.6888 64.668 89.1641 66.9393 86.5286C67.4562 85.9294 67.8792 85.2559 68.2277 84.5471C68.9326 86.5638 70.2719 88.3143 72.3082 89.2698C75.1238 90.5934 78.8558 90.4798 81.5578 88.9017C83.1321 87.9814 84.2638 86.5129 84.722 84.7468C85.0353 83.525 83.1478 83.0041 82.8345 84.2259V84.2338Z" fill="#5F5AA5"/>
<path d="M99.1682 64.2934C96.055 61.9516 91.7356 61.7989 88.2699 63.4162C86.402 64.2895 84.4361 65.7619 83.5002 67.6455C83.418 67.81 83.3436 67.9823 83.277 68.1546C82.6818 69.7562 84.7103 68.8438 85.3838 68.4796C88.5715 66.7605 92.7695 66.2279 96.2821 67.1129C98.3067 67.622 99.74 68.789 101.169 70.2418C101.498 70.5747 102.137 71.1268 102.368 70.4337C102.571 69.8267 102.328 69.0514 102.148 68.4757C101.631 66.8114 100.551 65.339 99.1643 64.2934H99.1682Z" fill="#5F5AA5"/>
<path d="M55.3323 68.9769C55.2814 68.7968 55.2226 68.6206 55.156 68.4483C54.3885 66.4942 52.5558 64.8533 50.7701 63.8234C47.4571 61.9085 43.1417 61.6892 39.8365 63.7529C38.3641 64.6732 37.1619 66.0477 36.5001 67.6611C36.273 68.2211 35.9636 68.973 36.1124 69.5957C36.2847 70.3084 36.9661 69.811 37.3264 69.5095C38.8771 68.1898 40.4083 67.1521 42.4681 66.8153C46.0434 66.2357 50.1788 67.1286 53.2059 69.1179C53.8481 69.5408 55.7905 70.6217 55.3362 68.9769H55.3323Z" fill="#5F5AA5"/>
</svg>
