<svg width="659" height="560" viewBox="0 0 659 560" fill="none" xmlns="http://www.w3.org/2000/svg">
<path d="M229.54 391.69C220.99 386.51 210.34 383.93 197.58 383.93C184.08 383.93 172.69 386.5 163.43 391.64C154.16 396.78 147.15 404.13 142.39 413.69C137.63 423.25 135.24 434.6 135.24 447.73C135.24 462.66 137.79 474.89 142.89 484.41C147.99 493.94 156.02 500.95 166.97 505.45C177.92 509.95 192.06 512.2 209.39 512.2C215.62 512.2 221.84 511.92 228.07 511.36C234.3 510.8 240.9 509.84 247.87 508.49V473.5C242.69 474.4 237.39 475.17 231.95 475.81C226.51 476.45 221.32 476.77 216.37 476.77C206.99 476.77 199.89 476.13 195.05 474.86C190.21 473.59 186.95 471.47 185.26 468.5C184.15 466.55 183.41 464.12 183.03 461.24H255.19V449.31C255.19 435.66 253.05 423.94 248.78 414.15C244.5 404.36 238.09 396.88 229.54 391.7V391.69ZM182.75 434.9C182.84 429.82 183.34 425.73 184.25 422.64C185.26 419.19 186.82 416.75 188.92 415.33C191.02 413.91 193.72 413.19 197.02 413.19C200.32 413.19 203.11 413.92 205.18 415.38C207.24 416.84 208.74 419.28 209.68 422.69C210.51 425.73 210.98 429.81 211.07 434.9H182.75Z" fill="#E5E1F2"/>
<path d="M325.41 343.2H286.48L277.59 385.96H259.59V423.09H277.59V461.91C277.59 479.24 281.96 491.93 290.7 500C299.44 508.06 312.02 512.1 328.45 512.1C332.8 512.1 337.3 511.8 341.95 511.2C346.6 510.6 350.57 509.92 353.88 509.18V472.05C351.55 472.35 349.47 472.61 347.63 472.84C345.79 473.06 343.97 473.18 342.17 473.18C335.94 473.18 331.59 471.85 329.12 469.19C326.64 466.53 325.41 461.63 325.41 454.51V423.12H353.88V385.99H325.41V343.23V343.2Z" fill="#E5E1F2"/>
<path d="M419.46 385.95H371.53V509.72H419.46V385.95Z" fill="#E5E1F2"/>
<path d="M395.5 326.54C385.6 326.54 378.36 328.58 373.78 332.67C369.2 336.76 366.92 342.59 366.92 350.17C366.92 357.75 369.21 363.49 373.78 367.61C378.35 371.74 385.6 373.8 395.5 373.8C405.4 373.8 412.73 371.74 417.27 367.61C421.81 363.49 424.08 357.67 424.08 350.17C424.08 342.67 421.81 336.76 417.27 332.67C412.73 328.58 405.47 326.54 395.5 326.54Z" fill="#E5E1F2"/>
<path d="M611.31 385.95L588.69 465.47L565.85 385.95H499.13V381.34C499.13 375.34 500.93 370.78 504.53 367.67C508.13 364.56 514.02 363 522.19 363C524.06 363 525.87 363.06 527.59 363.17C529.31 363.28 531.15 363.45 533.1 363.68V327C530.1 326.55 527.1 326.21 524.1 325.99C521.1 325.76 517.8 325.65 514.2 325.65C500.77 325.65 489.41 327.99 480.11 332.68C470.81 337.37 463.74 344.04 458.9 352.71C454.06 361.37 451.64 371.67 451.64 383.6V385.96H433.64V423.09H451.64V509.73H499.12V423.09H527.59V420.46L557.29 509.73H570.34L553.57 559.24H600.15L658.1 385.96H611.29L611.31 385.95Z" fill="#E5E1F2"/>
<path d="M115.45 355.91C102.25 345.94 82.29 340.95 55.59 340.95C45.31 340.95 35.58 341.46 26.39 342.47C17.2 343.48 8.4 344.85 0 346.58V509.73H48.83V465.4C50.93 465.48 52.95 465.55 54.91 465.62C56.86 465.7 58.92 465.73 61.1 465.73C85.18 465.73 103.56 460.48 116.23 449.98C128.91 439.48 135.25 423.95 135.25 403.4C135.25 381.72 128.65 365.89 115.45 355.92V355.91ZM83.44 386.18C85.66 386.83 87.69 388.03 89.45 389.54C90.33 390.3 91.09 391.15 91.87 392C92.62 392.81 93.37 393.65 93.42 394.84C93.48 396.37 92.26 397.51 90.79 398.35C85.9 401.14 78.05 402.74 73.31 398.7C70.84 396.6 69.25 393.44 70.98 390.31C72.66 387.27 76.12 385.79 79.39 385.67C80.75 385.62 82.12 385.79 83.43 386.18H83.44ZM59.85 379.07C61.9 376.75 65.09 375.9 68.1 376.04C69.62 376.11 71.13 376.42 72.55 376.97C73.93 377.5 75.6 378.11 76.24 379.57C78.03 383.68 71.81 387.29 68.85 388.58C67.68 389.09 66.25 389.58 64.83 389.78C63.85 389.91 62.87 389.9 62 389.66C60.21 389.16 58.77 387.96 58.05 386.23C56.99 383.7 58.16 380.99 59.86 379.07H59.85ZM55.94 421.65C53.74 423 50.94 423.31 48.49 422.5C42.79 420.63 41.46 413.88 42.59 408.66C42.62 408.53 42.65 408.41 42.67 408.28C43.34 405.33 44.25 402.39 42.65 399.5C41.18 396.84 41.47 393.22 42.5 390.47C43.63 387.44 46.34 385.4 49.6 385.16C51.8 384.99 54.01 385.67 55.82 386.91C57.74 388.22 59.11 390.25 60.92 391.71C63.76 394.01 67.87 395.15 69.76 398.43C71.29 401.09 71.46 404.5 70.23 407.3C69.92 408.01 69.52 408.68 69.03 409.28C66.94 411.87 63.64 413.13 61.31 415.46C59.36 417.42 58.36 420.16 55.93 421.65H55.94ZM78.73 424.83C78.53 426.62 76.43 427.75 74.95 428.4C72.05 429.68 68.69 430.4 65.55 429.62C63.24 429.05 61.09 427.63 59.84 425.58C58.5 423.39 59.07 420.68 60.65 418.78C64.37 414.29 70.81 416.38 75 419.36C75.46 419.69 75.9 420.03 76.3 420.37C77.53 421.42 78.91 423.09 78.72 424.82L78.73 424.83ZM93.46 409.19C92.81 411.65 90.76 414.04 88.9 415.7C87.35 417.08 85.63 418.24 83.61 418.8C79.15 420.03 72.47 418.26 71.58 413.02C71.22 410.87 72.22 408.75 73.77 407.29C74.62 406.49 75.71 405.94 76.86 405.56C77.92 405.21 79.04 405 80.09 404.86C82.9 404.5 85.94 404.49 88.76 404.77C90.86 404.98 93.7 405.59 93.61 408.25C93.6 408.57 93.55 408.88 93.47 409.19H93.46Z" fill="#E5E1F2"/>
<path d="M512.91 206.3C501.95 200.5 490.03 196.96 477.8 195.4C477.37 152.71 454.2 111.42 433.41 82.88L433.33 82.77C424.66 71.69 394.82 36.11 374.72 43.43C364.53 47.14 359.73 60.2 360.08 83.3C357.92 82.74 355.74 82.21 353.56 81.73C346.59 80.2 339.52 79.1 332.4 78.52C323.71 77.81 314.94 77.87 306.28 78.89C308.81 57.59 305.6 44.97 296.49 40.38C279.32 31.72 249.27 57.63 232.9 73.86L232.8 73.96C207.4 101.01 177.65 141.71 174.11 186.59C164.57 186.41 155.01 187.54 145.81 190.08C142.71 190.93 144.03 195.76 147.14 194.9C155.86 192.5 164.84 191.47 173.82 191.61C173.82 191.87 173.8 192.13 173.79 192.39C173.79 192.58 173.78 192.76 173.77 192.95C173.59 200.5 174.2 207.79 175.58 214.79C175.22 214.93 174.86 215.06 174.51 215.2C165.83 218.71 157.96 223.79 151.15 230.22C148.81 232.44 152.35 235.97 154.69 233.76C161.12 227.68 168.61 222.99 176.71 219.77C182.96 244.16 198.99 264.83 224.09 280.49C252.84 298.42 290.64 307.5 328.24 307.5C361.88 307.5 395.36 300.23 422.06 285.52C448.37 271.02 465.73 250.98 473.37 226.65C474.35 227.25 475.33 227.86 476.3 228.51C483.53 233.37 489.75 239.68 494.63 246.89C496.42 249.54 500.76 247.04 498.95 244.37C492.62 235 484.36 227.38 474.77 221.76C475.53 218.79 476.14 215.76 476.62 212.67H476.7C477.05 210.24 477.29 207.79 477.48 205.35C477.52 204.91 477.56 204.47 477.59 204.03C477.62 203.6 477.64 203.16 477.66 202.73C477.7 201.96 477.75 201.18 477.77 200.4C479.32 200.61 480.87 200.84 482.41 201.11C492.17 202.85 501.63 205.98 510.39 210.63C513.23 212.14 515.76 207.82 512.91 206.31V206.3ZM431.77 210.32C429.76 210.3 427.72 210.31 425.72 210.52C424.38 210.66 423.22 211.57 423.22 213.02C423.22 214.26 424.37 215.66 425.72 215.52C431.23 214.95 436.95 215.38 442.42 216.08C442.54 216.09 442.59 216.1 442.63 216.11C442.66 216.11 442.72 216.12 442.85 216.14C443.15 216.18 443.44 216.23 443.74 216.27C444.42 216.37 445.1 216.48 445.78 216.6C447.17 216.84 448.56 217.12 449.93 217.42C452.83 218.07 455.7 218.86 458.52 219.8C461.13 220.67 463.68 221.69 466.17 222.83C457.8 251.04 436.61 268.38 418.22 278.52C363.99 308.4 280.58 306.28 228.34 273.7C210.99 262.88 191.32 244.96 184.36 217.23C187.4 216.4 190.49 215.76 193.63 215.33C199.22 214.57 205.12 214.44 210.83 214.82C212.07 214.9 213.3 215.01 214.54 215.14C215.1 215.2 215.66 215.27 216.22 215.34C216.36 215.36 216.51 215.38 216.65 215.4C216.95 215.44 217.25 215.48 217.55 215.53C219.41 215.81 221.26 216.14 223.1 216.53C224.98 216.93 226.88 217.37 228.71 217.98C231.77 219 233.08 214.17 230.04 213.16C224.45 211.29 218.37 210.46 212.53 209.96C202.77 209.13 192.77 209.81 183.27 212.32C182.36 207.47 181.83 202.33 181.76 196.89C181.74 195.74 181.75 194.58 181.77 193.43C181.77 193 181.79 192.57 181.81 192.13C181.81 192.1 181.81 192.07 181.81 192.03C186.85 192.49 191.87 193.3 196.82 194.43C208.28 197.05 218.95 201.04 229.18 206.48C231.12 207.51 233.06 208.57 234.89 209.77C237.59 211.54 240.1 207.21 237.41 205.45C231.85 201.81 225.65 199 219.53 196.46C207.62 191.53 194.96 188.19 182.1 187.01C185.53 144.53 214.14 105.52 238.59 79.48C262.72 55.59 284.04 43.04 292.9 47.51C298.68 50.43 300.49 62 298.06 80.16C298.02 80.16 297.99 80.17 297.95 80.18C290.73 81.59 283.6 83.71 276.92 86.8C274.52 87.91 272.25 89.71 269.84 90.68C271.33 90.08 272.83 89.52 274.35 89.01C287.97 84.41 302.57 83.24 316.87 83.91C329.04 84.48 341.14 86.39 352.98 89.26C358.39 90.57 363.61 92.57 368.98 93.94C370.66 94.37 372.58 94.34 373.95 93.13C375.01 92.19 375.5 90.59 374.94 89.28C374.35 87.89 372.75 86.98 371.37 86.55C370.3 86.22 369.23 85.88 368.16 85.55C367.56 65.63 370.87 53.34 377.48 50.93C388.6 46.88 410.94 67.1 427.01 87.63C446.94 114.99 469.13 154.36 469.83 194.64C467.45 194.5 465.07 194.43 462.69 194.43C450.59 194.44 438.39 196.11 426.73 199.32C424.53 199.93 422.32 200.56 420.18 201.37C418.92 201.85 418.05 203.06 418.43 204.45C418.76 205.66 420.24 206.68 421.51 206.2C427.44 203.96 433.79 202.57 440.01 201.46C449.7 199.73 459.8 199.02 469.8 199.62C469.78 200.46 469.75 201.29 469.7 202.13C469.65 202.97 469.6 203.8 469.54 204.62C469.52 204.92 469.49 205.22 469.47 205.53C469.08 209.88 468.39 214.02 467.47 217.96C465.96 217.28 464.44 216.63 462.88 216.05C453.01 212.32 442.34 210.43 431.8 210.32H431.77Z" fill="#E5E1F2"/>
<path d="M351.57 72.96C351.57 72.96 357.03 37.35 375.07 17.43C375.07 17.43 357.85 24.6 345.76 43.62L338.65 0L324.34 43.06C324.34 43.06 317.73 31.64 300.58 27.62C300.58 27.62 315.58 46.99 315.54 71.22C315.54 71.22 334.31 67.12 351.57 72.98V72.96Z" fill="#E5E1F2"/>
<path d="M355.57 215.1C353.94 221.42 348.02 224.57 341.94 225.12C335.39 225.72 328.41 223.91 324.71 218.05C322.39 214.39 321.61 209.9 321.77 205.59C321.84 205.56 321.92 205.53 321.98 205.51C323.1 205.14 324.2 204.75 325.29 204.32C327.45 203.47 329.56 202.5 331.61 201.4C336.09 199.01 343.24 195.22 339.43 189.05C339.01 188.37 338.48 187.76 337.88 187.23C334.71 184.41 330.04 184.17 326 184.03C320.21 183.84 314.4 184.29 308.64 184.84C304.06 185.28 297.34 187.15 298.23 193.14C298.4 194.27 298.89 195.35 299.62 196.22C303.6 201 309.91 204.23 316.04 205.89C315.23 213.02 311.36 220.08 304.11 222.17C298.23 223.87 290.89 222.43 286.06 218.76C283.33 216.68 281.49 213.71 281.16 210.26C281.03 208.92 280.1 207.76 278.66 207.76C277.41 207.76 276.03 208.91 276.16 210.26C276.56 214.43 278.22 218.23 281.24 221.18C284.08 223.94 287.78 225.78 291.58 226.81C299.82 229.03 309.18 227.69 314.98 220.96C316.3 219.43 317.38 217.71 318.27 215.9C320.07 221.05 323.49 225.52 328.69 227.96C335.88 231.34 345.41 231.05 352.31 227.02C356.33 224.67 359.22 220.92 360.39 216.41C361.19 213.29 356.37 211.96 355.57 215.08V215.1Z" fill="#E5E1F2"/>
<path d="M397.28 164.18C389.33 158.2 378.3 157.81 369.45 161.94C364.68 164.17 359.66 167.93 357.27 172.74C357.06 173.16 356.87 173.6 356.7 174.04C355.18 178.13 360.36 175.8 362.08 174.87C370.22 170.48 380.94 169.12 389.91 171.38C395.08 172.68 398.74 175.66 402.39 179.37C403.23 180.22 404.86 181.63 405.45 179.86C405.97 178.31 405.35 176.33 404.89 174.86C403.57 170.61 400.81 166.85 397.27 164.18H397.28Z" fill="#E5E1F2"/>
<path d="M285.34 176.14C285.21 175.68 285.06 175.23 284.89 174.79C282.93 169.8 278.25 165.61 273.69 162.98C265.23 158.09 254.21 157.53 245.77 162.8C242.01 165.15 238.94 168.66 237.25 172.78C236.67 174.21 235.88 176.13 236.26 177.72C236.7 179.54 238.44 178.27 239.36 177.5C243.32 174.13 247.23 171.48 252.49 170.62C261.62 169.14 272.18 171.42 279.91 176.5C281.55 177.58 286.51 180.34 285.35 176.14H285.34Z" fill="#E5E1F2"/>
</svg>
