<svg width="233" height="233" viewBox="0 0 233 233" fill="none" xmlns="http://www.w3.org/2000/svg">
<path d="M216.263 122.368V204.526C216.263 210.752 213.79 216.723 209.388 221.125C204.986 225.527 199.015 228 192.789 228H157.579M216.263 122.368C140.654 122.368 97.6624 145.666 74.7755 172.168M216.263 122.368V104.763M157.579 228H28.4737C22.2481 228 16.2775 225.527 11.8753 221.125C7.47311 216.723 5 210.752 5 204.526V169.316M157.579 228C137.579 195.512 105.62 179.316 74.7755 172.168M74.7755 172.168C47.6869 165.877 21.4668 166.569 5 169.316M5 169.316V40.2105C5 33.9849 7.47311 28.0143 11.8753 23.6121C16.2775 19.21 22.2481 16.7368 28.4737 16.7368H122.368M192.789 5V40.2105M192.789 40.2105V75.4211M192.789 40.2105H228M192.789 40.2105H157.579M69.5526 63.6842C63.6842 63.6842 51.9474 67.2053 51.9474 81.2895C51.9474 95.3737 63.6842 98.8947 69.5526 98.8947C75.4211 98.8947 87.1579 95.3737 87.1579 81.2895C87.1579 67.2053 75.4211 63.6842 69.5526 63.6842Z" stroke="#BAACEB" stroke-width="10" stroke-linecap="round" stroke-linejoin="round"/>
</svg>
